<?xml version="1.0" encoding="UTF-8"?>
<svg viewBox="112 0 221.79353 176" xmlns="http://www.w3.org/2000/svg"><!-- Original: viewBox="0 0 221.79353 254.7224" -->
 <g transform="translate(-13.515 -797.64)" stroke="#000">
  <!-- <path d="m128 819.36v169.04" fill="none" stroke-linecap="square" stroke-width="24"/> -->
  <!-- <path transform="matrix(.56147 -.1224 .22389 .67983 -.11369 911.97)" d="m172 153.5c0 28.995-43.204 52.5-96.5 52.5s-96.5-23.505-96.5-52.5c0-28.995 43.204-52.5 96.5-52.5s96.5 23.505 96.5 52.5z" stroke-linecap="square" stroke-width="24"/> -->
  <path transform="translate(0 796.36)" d="m115.73 1.7778s96.049-0.4614 114.24 46.889c16.26 42.328-13.571 83.651-14.571 97.651s19.079 14.222 19.079 14.222l-2.873 16.064s-28.619 1.7302-30.619-18.27 4.4286-58.357-13.635-83.682-71.159-19.651-71.159-19.651"/>
 </g>
</svg>
